HIERARCHY
ROOT joint_Root
{
	OFFSET 0.0 0.0 0.0
	CHANNELS 6 Xposition Yposition Zposition Zrotation Xrotation Yrotation 
	JOINT Hips
	{
		OFFSET 4.5925 91.4895 -427.239
		CHANNELS 6 Xposition Yposition Zposition Zrotation Xrotation Yrotation 
		JOINT Spine
		{
			OFFSET 15.7357 0.0 0.0
			CHANNELS 6 Xposition Yposition Zposition Zrotation Xrotation Yrotation 
			JOINT Chest
			{
				OFFSET 8.98455 -0.406207 0.0
				CHANNELS 6 Xposition Yposition Zposition Zrotation Xrotation Yrotation 
				JOINT Neck
				{
					OFFSET 16.3773 0.0 0.0
					CHANNELS 6 Xposition Yposition Zposition Zrotation Xrotation Yrotation 
					JOINT Head
					{
						OFFSET 6.45672 0.0 0.0
						CHANNELS 6 Xposition Yposition Zposition Zrotation Xrotation Yrotation 
						End Site
						{
							OFFSET 0.0 0.0 0.0
						}
					}
				}
				JOINT Shoulder_L
				{
					OFFSET 12.9942 -0.242716 4.98039
					CHANNELS 6 Xposition Yposition Zposition Zrotation Xrotation Yrotation 
					JOINT UpperArm_L
					{
						OFFSET 5.34809 0.0 0.0
						CHANNELS 6 Xposition Yposition Zposition Zrotation Xrotation Yrotation 
						JOINT LowerArm_L
						{
							OFFSET 24.3286 1.87007e-05 0.0
							CHANNELS 6 Xposition Yposition Zposition Zrotation Xrotation Yrotation 
							JOINT Hand_L
							{
								OFFSET 22.2916 0.0 0.0
								CHANNELS 6 Xposition Yposition Zposition Zrotation Xrotation Yrotation 
								End Site
								{
									OFFSET 0.0 0.0 0.0
								}
							}
						}
					}
				}
				JOINT Shoulder_R
				{
					OFFSET 12.9945 -0.242716 -4.98039
					CHANNELS 6 Xposition Yposition Zposition Zrotation Xrotation Yrotation 
					JOINT UpperArm_R
					{
						OFFSET -5.34813 0.0 0.0
						CHANNELS 6 Xposition Yposition Zposition Zrotation Xrotation Yrotation 
						JOINT LowerArm_R
						{
							OFFSET -24.3289 0.000322201 0.0
							CHANNELS 6 Xposition Yposition Zposition Zrotation Xrotation Yrotation 
							JOINT Hand_R
							{
								OFFSET -22.2915 -0.000108084 0.0
								CHANNELS 6 Xposition Yposition Zposition Zrotation Xrotation Yrotation 
								End Site
								{
									OFFSET 0.0 0.0 0.0
								}
							}
						}
					}
				}
			}
		}
		JOINT UpperLeg_L
		{
			OFFSET -2.19248 -6.46944 0.0
			CHANNELS 6 Xposition Yposition Zposition Zrotation Xrotation Yrotation 
			JOINT LowerLeg_L
			{
				OFFSET 39.0811 0.0 -1.23785e-05
				CHANNELS 6 Xposition Yposition Zposition Zrotation Xrotation Yrotation 
				JOINT Foot_L
				{
					OFFSET 40.9854 0.0 -1.26872e-05
					CHANNELS 6 Xposition Yposition Zposition Zrotation Xrotation Yrotation 
					JOINT Toes_L
					{
						OFFSET 11.7543 0.0 0.0
						CHANNELS 6 Xposition Yposition Zposition Zrotation Xrotation Yrotation 
						End Site
						{
							OFFSET 0.0 0.0 0.0
						}
					}
				}
			}
		}
		JOINT UpperLeg_R
		{
			OFFSET -2.19251 6.46944 0.0
			CHANNELS 6 Xposition Yposition Zposition Zrotation Xrotation Yrotation 
			JOINT LowerLeg_R
			{
				OFFSET -39.0811 -0.00228153 -0.0401928
				CHANNELS 6 Xposition Yposition Zposition Zrotation Xrotation Yrotation 
				JOINT Foot_R
				{
					OFFSET -40.9854 0.0 0.0
					CHANNELS 6 Xposition Yposition Zposition Zrotation Xrotation Yrotation 
					JOINT Toes_R
					{
						OFFSET -11.7543 0.0 0.0
						CHANNELS 6 Xposition Yposition Zposition Zrotation Xrotation Yrotation 
						End Site
						{
							OFFSET 0.0 0.0 0.0
						}
					}
				}
			}
		}
	}
}
MOTION
Frames:	7
Frame Time:	0.0333333
0.000000 0.000000 0.000000 0.000000 0.000000 -0.000000 0.312861 90.035500 -54.616500 87.929300 -0.184754 -0.917616 15.735700 0.000005 -0.000001 81.470900 80.348200 -81.571800 8.984550 -0.406207 -0.000000 11.331800 -2.843580 0.080307 16.377300 -0.000001 -0.000001 -0.458071 -3.377460 1.012720 6.456720 -0.000001 -0.000000 -4.807060 -2.067700 2.398320 12.994200 -0.242716 4.980390 -90.334200 1.205030 -74.499800 5.348090 -0.000007 -0.000001 -61.155100 23.816000 -21.937700 24.328600 0.000019 0.000005 10.768100 14.459000 -37.295700 22.291600 -0.000001 0.000005 14.262100 5.226770 2.038690 12.994500 -0.242716 -4.980390 88.325700 8.648210 -78.999600 -5.348130 -0.000001 -0.000004 -66.494100 28.752000 -5.701170 -24.328900 0.000322 -0.000009 0.527222 0.953230 -28.996900 -22.291500 -0.000108 -0.000004 16.236800 5.425070 -3.770520 -2.192480 -6.469440 -0.000000 -177.518000 -4.716420 -6.807580 39.081100 -0.000007 -0.000012 0.005077 -0.007509 34.059900 40.985400 -0.000006 -0.000013 5.071890 2.540810 -74.424000 11.754300 -0.000000 0.000003 -1.757020 -2.291550 -18.374900 -2.192510 6.469440 -0.000001 -172.835000 18.368800 151.787000 -39.081100 -0.002282 -0.040193 0.037094 -0.067213 26.686600 -40.985400 0.000008 0.000006 5.087710 5.048060 -60.230600 -11.754300 -0.000006 -0.000006 -0.016102 -0.144651 -22.476600
0.000000 0.000000 0.000000 0.000000 0.000000 -0.000000 0.092690 89.808400 -51.579500 88.158100 0.681313 -1.453100 15.735700 0.000005 -0.000001 79.884300 80.347100 -79.915100 8.984550 -0.406207 -0.000000 11.253000 -3.365420 0.270026 16.377300 -0.000001 -0.000001 -0.514477 -3.473020 0.960678 6.456720 -0.000001 -0.000000 -4.991190 -2.026440 2.558100 12.994200 -0.242716 4.980390 -90.313900 1.142280 -74.632100 5.348090 -0.000007 -0.000001 -60.453000 23.142600 -23.425000 24.328600 0.000019 0.000005 11.249700 13.917500 -39.590400 22.291600 -0.000001 0.000005 14.677700 5.234170 1.847880 12.994500 -0.242716 -4.980390 88.264700 8.764520 -78.754500 -5.348130 -0.000001 -0.000004 -67.220900 28.320400 -4.769940 -24.328900 0.000322 -0.000009 0.379933 0.698273 -28.619800 -22.291500 -0.000108 -0.000004 16.068200 5.423110 -3.703960 -2.192480 -6.469440 -0.000000 -177.331000 -4.300140 -5.439940 39.081100 -0.000007 -0.000012 0.004844 -0.007134 34.173500 40.985400 -0.000006 -0.000013 4.908500 3.116690 -74.715700 11.754300 -0.000000 0.000003 -1.699810 -2.103220 -18.317600 -2.192510 6.469440 -0.000001 -171.299000 19.625100 150.228000 -39.081100 -0.002282 -0.040193 0.050219 -0.114933 22.199300 -40.985400 0.000008 0.000006 5.825850 8.380300 -60.908200 -11.754300 -0.000006 -0.000006 -0.016489 -0.147000 -22.573200
0.000000 0.000000 0.000000 0.000000 0.000000 -0.000000 -0.179901 89.445900 -48.154700 88.333200 1.432010 -1.916430 15.735700 0.000005 -0.000001 78.694700 80.399900 -78.580100 8.984550 -0.406207 -0.000000 11.082600 -3.732220 0.591455 16.377300 -0.000001 -0.000001 -0.417122 -3.476630 0.784177 6.456720 -0.000001 -0.000000 -4.990660 -2.005480 2.497450 12.994200 -0.242716 4.980390 -90.305400 1.109810 -74.612700 5.348090 -0.000007 -0.000001 -60.183400 22.603100 -24.253600 24.328600 0.000019 0.000005 11.881800 13.653900 -41.710900 22.291600 -0.000001 0.000005 15.034100 5.235600 1.810360 12.994500 -0.242716 -4.980390 88.248100 8.730700 -78.607400 -5.348130 -0.000001 -0.000004 -67.623200 28.414800 -4.219020 -24.328900 0.000322 -0.000009 0.381067 0.714408 -28.141500 -22.291500 -0.000108 -0.000004 15.949600 5.424360 -3.746650 -2.192480 -6.469440 -0.000000 -176.989000 -3.881960 -3.770390 39.081100 -0.000007 -0.000012 0.004354 -0.006361 34.386800 40.985400 -0.000006 -0.000013 4.580760 3.768220 -74.951400 11.754300 -0.000000 0.000003 -0.614363 -0.747643 -19.017900 -2.192510 6.469440 -0.000001 -170.921000 18.996200 148.716000 -39.081100 -0.002282 -0.040193 0.060264 -0.138784 22.309700 -40.985400 0.000008 0.000006 6.161520 8.058310 -60.529500 -11.754300 -0.000006 -0.000006 -0.017093 -0.150618 -22.721800
0.000000 0.000000 0.000000 0.000000 0.000000 -0.000000 -0.538530 89.018600 -44.349200 88.231400 2.110270 -2.464280 15.735700 0.000005 -0.000001 77.821400 80.557100 -77.406700 8.984550 -0.406207 -0.000000 10.727900 -3.945080 1.199740 16.377300 -0.000001 -0.000001 -0.091947 -3.396490 0.615511 6.456720 -0.000001 -0.000000 -4.983230 -1.890430 2.133580 12.994200 -0.242716 4.980390 -90.340900 1.229290 -74.498000 5.348090 -0.000007 -0.000001 -60.272600 22.225700 -24.218800 24.328600 0.000019 0.000005 12.595900 13.509000 -43.727600 22.291600 -0.000001 0.000005 15.429200 5.236390 1.789620 12.994500 -0.242716 -4.980390 88.224800 8.778980 -78.520900 -5.348130 -0.000001 -0.000004 -67.488200 28.834000 -4.003400 -24.328900 0.000322 -0.000009 0.459832 0.874830 -27.783600 -22.291500 -0.000108 -0.000004 15.731900 5.419230 -3.572710 -2.192480 -6.469440 -0.000000 -176.208000 -3.655990 -2.411120 39.081100 -0.000007 -0.000012 0.004072 -0.005742 35.334300 40.985400 -0.000006 -0.000013 4.158380 4.654320 -74.591500 11.754300 -0.000000 0.000003 -0.013298 -0.126830 -21.749000 -2.192510 6.469440 -0.000001 -172.304000 15.310600 147.319000 -39.081100 -0.002282 -0.040193 0.046434 -0.084382 27.070800 -40.985400 0.000008 0.000006 5.562710 6.353020 -55.747300 -11.754300 -0.000006 -0.000006 -0.021376 -0.174793 -23.717100
0.000000 0.000000 0.000000 0.000000 0.000000 -0.000000 -0.972527 88.654100 -40.270800 88.006200 3.126730 -2.765210 15.735700 0.000005 -0.000001 76.829300 80.664100 -76.011500 8.984550 -0.406207 -0.000000 10.466000 -4.206260 2.020540 16.377300 -0.000001 -0.000001 0.063863 -3.388710 0.466650 6.456720 -0.000001 -0.000000 -4.854050 -1.779030 1.793720 12.994200 -0.242716 4.980390 -90.447500 1.605370 -74.423400 5.348090 -0.000007 -0.000001 -60.428700 22.166300 -23.387200 24.328600 0.000019 0.000005 13.360600 13.453000 -45.591700 22.291600 -0.000001 0.000005 15.583800 5.236670 1.782470 12.994500 -0.242716 -4.980390 88.112500 9.150890 -78.292900 -5.348130 -0.000001 -0.000004 -66.676300 29.239600 -4.126020 -24.328900 0.000322 -0.000009 0.408275 0.784335 -27.561500 -22.291500 -0.000108 -0.000004 15.769100 5.420760 -3.624510 -2.192480 -6.469440 -0.000000 -175.141000 -3.255490 -2.027560 39.081100 -0.000007 -0.000012 0.007838 -0.009948 38.228200 40.985400 -0.000006 -0.000013 3.686770 5.804600 -72.364000 11.754300 -0.000000 0.000003 -0.044542 -0.277743 -27.999900 -2.192510 6.469440 -0.000001 -173.331000 12.689500 147.061000 -39.081100 -0.002282 -0.040193 0.010747 -0.012215 31.371300 -40.985400 0.000008 0.000006 4.867380 3.100280 -53.472100 -11.754300 -0.000006 -0.000006 -0.016095 -0.144607 -22.474800
0.000000 0.000000 0.000000 0.000000 0.000000 -0.000000 -1.299900 88.452300 -36.079000 88.504500 3.850690 -2.194530 15.735700 0.000005 -0.000001 76.555900 80.489100 -75.620600 8.984550 -0.406207 -0.000000 10.794100 -4.366110 2.282960 16.377300 -0.000001 -0.000001 0.098615 -3.442520 0.514578 6.456720 -0.000001 -0.000000 -4.834370 -1.744710 1.548460 12.994200 -0.242716 4.980390 -90.504500 1.813220 -74.448100 5.348090 -0.000007 -0.000001 -61.258100 22.296600 -21.916200 24.328600 0.000019 0.000005 13.730700 13.335800 -46.650100 22.291600 -0.000001 0.000005 15.798200 5.243120 1.614010 12.994500 -0.242716 -4.980390 88.054100 9.393540 -78.240900 -5.348130 -0.000001 -0.000004 -65.867100 29.140100 -4.641720 -24.328900 0.000322 -0.000009 0.332733 0.648457 -27.240400 -22.291500 -0.000108 -0.000004 15.886000 5.421260 -3.641490 -2.192480 -6.469440 -0.000000 -174.973000 -2.886890 -3.194720 39.081100 -0.000007 -0.000012 0.024132 -0.024616 44.427100 40.985400 -0.000006 -0.000013 3.264740 6.567170 -66.012600 11.754300 -0.000000 0.000003 -0.114516 -0.479242 -36.655800 -2.192510 6.469440 -0.000001 -174.679000 11.815800 148.009000 -39.081100 -0.002282 -0.040193 -0.092031 0.127901 36.695200 -40.985400 0.000008 0.000006 5.098480 1.686340 -58.186700 -11.754300 -0.000006 -0.000006 -0.010045 -0.103974 -20.809400
0.000000 0.000000 0.000000 0.000000 0.000000 -0.000000 -1.577590 88.410100 -32.088600 89.273200 3.989020 -0.859793 15.735700 0.000005 -0.000001 77.995700 80.041900 -77.146600 8.984550 -0.406207 -0.000000 11.767400 -4.077960 2.118610 16.377300 -0.000001 -0.000001 0.354223 -3.619310 0.769585 6.456720 -0.000001 -0.000000 -5.156990 -1.991550 1.577340 12.994200 -0.242716 4.980390 -90.401200 1.445840 -74.490300 5.348090 -0.000007 -0.000001 -62.795700 22.824300 -20.727000 24.328600 0.000019 0.000005 13.656000 13.395700 -46.361800 22.291600 -0.000001 0.000005 15.742900 5.243360 1.607800 12.994500 -0.242716 -4.980390 88.171100 9.073710 -78.553800 -5.348130 -0.000001 -0.000004 -65.524600 28.339000 -5.696150 -24.328900 0.000322 -0.000009 0.299848 0.593668 -26.880400 -22.291500 -0.000108 -0.000004 15.914300 5.416680 -3.487630 -2.192480 -6.469440 -0.000000 -175.335000 -1.882200 -6.155260 39.081100 -0.000007 -0.000012 0.045144 -0.033798 53.175500 40.985400 -0.000006 -0.000013 1.411380 6.627860 -56.582200 11.754300 -0.000000 0.000003 -0.097032 -0.437147 -34.807800 -2.192510 6.469440 -0.000001 -175.812000 11.795500 150.668000 -39.081100 -0.002282 -0.040193 -0.094123 0.115547 40.129400 -40.985400 0.000008 0.000006 6.619040 0.850152 -62.882500 -11.754300 -0.000006 -0.000006 -0.005435 -0.065610 -19.242900
